<?xml version="1.0" encoding="UTF-8" standalone="no"?><!DOCTYPE svg PUBLIC "-//W3C//DTD SVG 1.1//EN" "http://www.w3.org/Graphics/SVG/1.1/DTD/svg11.dtd"><svg width="100%" height="100%" viewBox="0 0 105 105" version="1.1" xmlns="http://www.w3.org/2000/svg" xmlns:xlink="http://www.w3.org/1999/xlink" xml:space="preserve" xmlns:serif="http://www.serif.com/" style="fill-rule:evenodd;clip-rule:evenodd;stroke-linejoin:round;stroke-miterlimit:2;"><path d="M104.636,26.159c0,-14.438 -11.721,-26.159 -26.159,-26.159l-52.318,0c-14.438,0 -26.159,11.721 -26.159,26.159l-0,52.318c-0,14.438 11.721,26.159 26.159,26.159l52.318,0c14.438,0 26.159,-11.721 26.159,-26.159l0,-52.318Z" style="fill:#fff;"/><g><path d="M24.509,79.413l0,-0.84l1.681,-0.589c1.12,-0.336 1.862,-0.84 2.226,-1.512c0.364,-0.672 0.546,-1.568 0.546,-2.688l0,-44.024c0,-1.12 -0.196,-2.016 -0.588,-2.688c-0.392,-0.672 -1.148,-1.204 -2.268,-1.596l-1.597,-0.673l0,-0.84l20.416,0c8.345,0 14.38,1.527 18.105,4.579c3.725,3.053 5.587,7.071 5.587,12.056c-0,3.193 -0.77,6.119 -2.311,8.78c-1.54,2.66 -4.074,4.774 -7.603,6.343c-3.528,1.568 -8.289,2.352 -14.282,2.352l-2.857,0l0,15.459c0,2.184 1.092,3.612 3.277,4.284l2.52,0.757l0,0.84l-22.852,-0Zm17.055,-23.02l3.193,-0c2.744,-0 4.985,-0.448 6.721,-1.344c1.736,-0.897 3.024,-2.465 3.865,-4.705c0.84,-2.241 1.26,-5.349 1.26,-9.326c-0,-4.032 -0.462,-7.169 -1.386,-9.409c-0.925,-2.241 -2.283,-3.795 -4.075,-4.663c-1.792,-0.868 -4.033,-1.302 -6.721,-1.302l-2.857,-0l0,30.749Z" style="fill-rule:nonzero;"/><path d="M72.902,80.673c-2.017,-0 -3.725,-0.7 -5.125,-2.1c-1.4,-1.401 -2.101,-3.081 -2.101,-5.041c0,-1.961 0.701,-3.669 2.101,-5.125c1.4,-1.456 3.108,-2.185 5.125,-2.185c2.016,0 3.724,0.729 5.124,2.185c1.401,1.456 2.101,3.164 2.101,5.125c-0,1.96 -0.7,3.64 -2.101,5.041c-1.4,1.4 -3.108,2.1 -5.124,2.1Z" style="fill-rule:nonzero;"/></g></svg>