<?xml version="1.0" standalone="no"?>
<!DOCTYPE svg PUBLIC "-//W3C//DTD SVG 20010904//EN"
 "http://www.w3.org/TR/2001/REC-SVG-20010904/DTD/svg10.dtd">
<svg version="1.0" xmlns="http://www.w3.org/2000/svg"
 width="700.000000pt" height="700.000000pt" viewBox="0 0 700.000000 700.000000"
 preserveAspectRatio="xMidYMid meet">
<metadata>
Created by potrace 1.14, written by Peter Selinger 2001-2017
</metadata>
<g transform="translate(0.000000,700.000000) scale(0.100000,-0.100000)"
fill="#000000" stroke="none">
<path d="M1599 6996 c-2 -2 -33 -7 -69 -10 -36 -4 -74 -9 -85 -11 -11 -3 -32
-7 -46 -9 -155 -25 -417 -130 -584 -234 -138 -86 -346 -273 -443 -399 -85
-110 -182 -275 -243 -418 -45 -102 -97 -304 -116 -440 -10 -73 -11 -3811 -1
-3910 17 -171 85 -398 170 -570 198 -396 540 -705 951 -859 101 -38 265 -80
352 -92 28 -3 59 -9 70 -11 31 -8 3751 -9 3825 -2 112 13 164 19 180 24 8 2
27 6 41 9 51 8 185 49 259 78 371 145 701 429 886 763 15 28 35 64 44 80 85
154 162 429 177 630 9 122 9 3722 0 3810 -13 121 -17 142 -46 259 -76 301
-230 573 -451 796 -249 250 -549 414 -890 484 -41 8 -91 19 -110 23 -35 7
-3863 17 -3871 9z"/>
</g>
</svg>
